<svg width="24" height="24" viewBox="0 0 24 24" fill="none" xmlns="http://www.w3.org/2000/svg">
<path fill-rule="evenodd" clip-rule="evenodd" d="M8.161 2.57999C8.42148 2.44966 8.70874 2.38181 9 2.38181C9.29126 2.38181 9.57852 2.44966 9.839 2.57999L14.832 5.07799C14.938 5.12999 15.062 5.12999 15.168 5.07799L19.037 3.14299C19.3228 3.00018 19.6404 2.93279 19.9596 2.94722C20.2788 2.96164 20.5891 3.0574 20.8609 3.22541C21.1327 3.39341 21.357 3.62809 21.5126 3.90717C21.6682 4.18625 21.7499 4.50046 21.75 4.81999V17.305C21.75 18.015 21.349 18.665 20.713 18.982L15.838 21.419C15.5778 21.549 15.2909 21.6167 15 21.6167C14.7091 21.6167 14.4222 21.549 14.162 21.419L9.168 18.922C9.11585 18.8959 9.05833 18.8823 9 18.8823C8.94167 18.8823 8.88415 18.8959 8.832 18.922L4.964 20.857C4.67812 21 4.36042 21.0676 4.04107 21.0533C3.72173 21.039 3.41134 20.9433 3.1394 20.7752C2.86746 20.6072 2.643 20.3724 2.48733 20.0932C2.33167 19.814 2.24997 19.4997 2.25 19.18V6.69499C2.25 5.98499 2.651 5.33499 3.286 5.01799L8.161 2.58099V2.57999ZM9 5.99999C9.19891 5.99999 9.38968 6.07901 9.53033 6.21966C9.67098 6.36031 9.75 6.55108 9.75 6.74999V15C9.75 15.1989 9.67098 15.3897 9.53033 15.5303C9.38968 15.671 9.19891 15.75 9 15.75C8.80109 15.75 8.61032 15.671 8.46967 15.5303C8.32902 15.3897 8.25 15.1989 8.25 15V6.74999C8.25 6.55108 8.32902 6.36031 8.46967 6.21966C8.61032 6.07901 8.80109 5.99999 9 5.99999ZM15.75 8.99999C15.75 8.80108 15.671 8.61031 15.5303 8.46966C15.3897 8.32901 15.1989 8.24999 15 8.24999C14.8011 8.24999 14.6103 8.32901 14.4697 8.46966C14.329 8.61031 14.25 8.80108 14.25 8.99999V17.25C14.25 17.4489 14.329 17.6397 14.4697 17.7803C14.6103 17.921 14.8011 18 15 18C15.1989 18 15.3897 17.921 15.5303 17.7803C15.671 17.6397 15.75 17.4489 15.75 17.25V8.99999Z" fill="black"/>
</svg>
