<svg width="24" height="24" viewBox="0 0 24 24" fill="none" xmlns="http://www.w3.org/2000/svg">
<path fill-rule="evenodd" clip-rule="evenodd" d="M7.71995 12.53C7.5795 12.3894 7.50061 12.1988 7.50061 12C7.50061 11.8013 7.5795 11.6106 7.71995 11.47L15.22 3.97C15.2886 3.89631 15.3714 3.83721 15.4634 3.79622C15.5554 3.75523 15.6547 3.73319 15.7554 3.73141C15.8561 3.72963 15.9562 3.74816 16.0495 3.78588C16.1429 3.8236 16.2278 3.87974 16.299 3.95096C16.3702 4.02218 16.4264 4.10702 16.4641 4.2004C16.5018 4.29379 16.5203 4.39382 16.5185 4.49452C16.5168 4.59523 16.4947 4.69454 16.4537 4.78654C16.4127 4.87854 16.3536 4.96134 16.28 5.03L9.30995 12L16.28 18.97C16.3536 19.0387 16.4127 19.1215 16.4537 19.2135C16.4947 19.3055 16.5168 19.4048 16.5185 19.5055C16.5203 19.6062 16.5018 19.7062 16.4641 19.7996C16.4264 19.893 16.3702 19.9778 16.299 20.049C16.2278 20.1203 16.1429 20.1764 16.0495 20.2141C15.9562 20.2518 15.8561 20.2704 15.7554 20.2686C15.6547 20.2668 15.5554 20.2448 15.4634 20.2038C15.3714 20.1628 15.2886 20.1037 15.22 20.03L7.71995 12.53Z" fill="black"/>
</svg>
