<svg width="24" height="24" viewBox="0 0 24 24" fill="none" xmlns="http://www.w3.org/2000/svg">
<path d="M13.5 10.5V6.75C13.5 5.55653 13.9741 4.41193 14.818 3.56802C15.6619 2.72411 16.8065 2.25 18 2.25C19.1935 2.25 20.3381 2.72411 21.182 3.56802C22.0259 4.41193 22.5 5.55653 22.5 6.75V10.5M3.75 21.75H14.25C14.8467 21.75 15.419 21.5129 15.841 21.091C16.2629 20.669 16.5 20.0967 16.5 19.5V12.75C16.5 12.1533 16.2629 11.581 15.841 11.159C15.419 10.7371 14.8467 10.5 14.25 10.5H3.75C3.15326 10.5 2.58097 10.7371 2.15901 11.159C1.73705 11.581 1.5 12.1533 1.5 12.75V19.5C1.5 20.0967 1.73705 20.669 2.15901 21.091C2.58097 21.5129 3.15326 21.75 3.75 21.75Z" stroke="black" stroke-width="1.5" stroke-linecap="round" stroke-linejoin="round"/>
</svg>
