<svg width="24" height="24" viewBox="0 0 24 24" fill="none" xmlns="http://www.w3.org/2000/svg">
<path d="M21.5224 16.4075C21.0302 17.5006 20.793 17.9892 20.1599 18.954C19.2737 20.3022 18.0236 21.9856 16.4793 21.9963C15.1044 22.0087 14.7495 21.0993 12.8824 21.1153C11.0171 21.1242 10.6283 22.0141 9.25166 21.9998C7.70556 21.9856 6.52325 20.4698 5.63696 19.1234C3.15821 15.3482 2.89607 10.9221 4.4279 8.56821C5.51213 6.89907 7.22586 5.91827 8.83616 5.91827C10.4768 5.91827 11.5075 6.81882 12.8628 6.81882C14.1788 6.81882 14.9795 5.91649 16.8769 5.91649C18.3107 5.91649 19.8265 6.69756 20.9107 8.04571C17.3656 9.98948 17.9416 15.0522 21.5224 16.4075ZM15.4361 4.40962C16.1262 3.52333 16.6505 2.27326 16.4597 1C15.3344 1.07668 14.0184 1.79534 13.2498 2.72621C12.5525 3.57505 11.9747 4.83404 12.1994 6.05201C13.4281 6.09125 14.6996 5.35832 15.4361 4.40962Z" fill="black"/>
</svg>
