<svg width="123" height="122" viewBox="0 0 123 122" fill="none" xmlns="http://www.w3.org/2000/svg">
<path d="M122.999 71.7963L114.64 76.665L56.2714 42.8875C49.7752 39.1274 39.2398 39.1274 32.7852 42.8875L8.53385 57.0141C2.07928 60.7729 2.11337 66.8908 8.60961 70.6496L61.3876 101.194C67.4331 104.692 77.2399 104.692 83.2475 101.192L114.674 82.8854L122.999 87.7036V81.5034L120.014 79.7759L122.999 78.0369V71.7963ZM77.8738 98.0828C74.8093 99.8673 69.8106 99.866 66.7272 98.0828L13.9505 67.5401C10.4164 65.4948 10.3975 62.1676 13.9076 60.1236L38.159 45.997C41.6691 43.9518 47.3989 43.9518 50.933 45.997L109.302 79.7759L77.8738 98.0828Z" fill="#F5F5F5"/>
<path d="M123 78.0368L102.417 90.0271L97.601 86.5923L123 71.7961V78.0368Z" fill="url(#paint0_linear_771_2200)"/>
<path d="M106.348 78.0662L122.999 87.7037V81.5035L107.095 72.2988L106.348 78.0662Z" fill="url(#paint1_linear_771_2200)"/>
<path d="M90.1764 29.7884L109.141 40.7624C115.127 44.2276 115.159 49.8659 109.211 53.3298L89.5564 64.7784L84.1827 61.6688L103.837 50.2202C106.841 48.4699 106.824 45.6223 103.801 43.8732L84.8367 32.898C79.771 29.9669 79.7445 25.1968 84.7774 22.2657L123 0V6.24193L90.1524 25.3753C88.0627 26.5928 88.0754 28.5722 90.1764 29.7884Z" fill="url(#paint2_linear_771_2200)"/>
<path d="M29.0557 111.121L10.7147 121.805H0L23.6819 108.012C26.1554 106.57 26.1428 104.225 23.6516 102.785L6.93689 93.1105C2.29546 90.4249 2.27021 86.0548 6.88134 83.3692L22.6933 74.1581L28.0683 77.269L12.2564 86.48C10.5897 87.4507 10.5985 89.0302 12.2753 90.0009L28.9913 99.6739C34.4446 102.83 34.4736 107.965 29.0557 111.121Z" fill="url(#paint3_linear_771_2200)"/>
<path d="M34.2965 79.9841L33.7258 80.317L31.5919 79.0818L32.1626 78.7489L34.2965 79.9841Z" fill="#424242"/>
<path d="M32.0143 81.3144L31.4436 81.6472L29.3085 80.412L29.8804 80.0792L32.0143 81.3144Z" fill="#424242"/>
<path d="M33.1558 80.6483L32.5851 80.9811L30.4513 79.7459L31.022 79.4143L33.1558 80.6483Z" fill="#424242"/>
<path d="M30.8713 81.9781L30.3018 82.311L28.168 81.0757L28.7374 80.7441L30.8713 81.9781Z" fill="#424242"/>
<path d="M95.5459 66.2536L94.9752 66.5864L92.8413 65.3512L93.412 65.0196L95.5459 66.2536Z" fill="#424242"/>
<path d="M93.2624 67.5836L92.6917 67.9164L90.5579 66.6812L91.1286 66.3496L93.2624 67.5836Z" fill="#424242"/>
<path d="M94.4064 66.9197L93.8344 67.2525L91.7006 66.0173L92.2713 65.6844L94.4064 66.9197Z" fill="#424242"/>
<path d="M92.1196 68.2499L91.5489 68.5815L89.415 67.3476L89.9858 67.0147L92.1196 68.2499Z" fill="#424242"/>
<path d="M88.0068 60.0231L88.5788 60.356L90.7127 59.1208L90.1419 58.7892L88.0068 60.0231Z" fill="#424242"/>
<path d="M90.2902 61.3533L90.8609 61.6862L92.9947 60.451L92.424 60.1194L90.2902 61.3533Z" fill="#424242"/>
<path d="M89.1516 60.6894L89.7223 61.0222L91.8562 59.787L91.2855 59.4542L89.1516 60.6894Z" fill="#424242"/>
<path d="M91.433 62.0195L92.0037 62.3511L94.1375 61.1171L93.5668 60.7842L91.433 62.0195Z" fill="#424242"/>
<path d="M79.7148 98.1003L80.2855 98.4331L82.4194 97.1992L81.8487 96.8663L79.7148 98.1003Z" fill="#424242"/>
<path d="M81.9961 99.4316L82.5668 99.7632L84.7006 98.5292L84.1299 98.1964L81.9961 99.4316Z" fill="#424242"/>
<path d="M80.8556 98.7664L81.4276 99.0993L83.5614 97.864L82.9894 97.5312L80.8556 98.7664Z" fill="#424242"/>
<path d="M83.1411 100.096L83.7118 100.428L85.8457 99.1933L85.275 98.8604L83.1411 100.096Z" fill="#424242"/>
<path d="M7.20264 83.9089L7.77335 84.2417L9.90719 83.0078L9.33648 82.6749L7.20264 83.9089Z" fill="#424242"/>
<path d="M9.48389 85.2393L10.0546 85.5709L12.1884 84.3369L11.6177 84.0041L9.48389 85.2393Z" fill="#424242"/>
<path d="M8.34326 84.5753L8.91523 84.9081L11.0491 83.6729L10.4784 83.34L8.34326 84.5753Z" fill="#424242"/>
<path d="M10.6288 85.9045L11.1995 86.2373L13.3333 85.0021L12.7626 84.6693L10.6288 85.9045Z" fill="#424242"/>
<path d="M18.8281 111.385L19.3988 111.718L21.5327 110.483L20.962 110.151L18.8281 111.385Z" fill="#424242"/>
<path d="M21.1094 112.715L21.6801 113.048L23.8152 111.813L23.2432 111.481L21.1094 112.715Z" fill="#424242"/>
<path d="M19.9667 112.051L20.5374 112.384L22.6712 111.148L22.1005 110.816L19.9667 112.051Z" fill="#424242"/>
<path d="M22.2522 113.381L22.8216 113.712L24.9555 112.478L24.386 112.146L22.2522 113.381Z" fill="#424242"/>
<path d="M103.285 12.3759L103.856 12.7088L105.99 11.4735L105.419 11.1407L103.285 12.3759Z" fill="#424242"/>
<path d="M105.566 13.7059L106.138 14.0388L108.272 12.8036L107.7 12.4707L105.566 13.7059Z" fill="#424242"/>
<path d="M104.426 13.0396L104.996 13.3725L107.13 12.1373L106.56 11.8057L104.426 13.0396Z" fill="#424242"/>
<path d="M106.709 14.3707L107.279 14.7035L109.413 13.4683L108.843 13.1367L106.709 14.3707Z" fill="#424242"/>
<ellipse cx="58" cy="75.75" rx="10" ry="1.75" fill="#FF9573"/>
<path fill-rule="evenodd" clip-rule="evenodd" d="M57.2817 75.8518L57.4613 75.9545C57.6649 76.0646 57.8927 76.1222 58.1241 76.1222C58.3555 76.1222 58.5833 76.0646 58.7868 75.9545L58.8382 75.927L58.9683 75.8518C59.6854 75.4267 60.3851 74.9728 61.0657 74.4915C62.8276 73.2475 64.4739 71.8473 65.9845 70.3078C69.5485 66.6595 73.25 61.1778 73.25 54.125C73.25 50.1136 71.6565 46.2665 68.82 43.43C65.9835 40.5935 62.1364 39 58.125 39C54.1136 39 50.2665 40.5935 47.43 43.43C44.5935 46.2665 43 50.1136 43 54.125C43 61.176 46.7033 66.6595 50.2655 70.3078C51.7755 71.8472 53.4212 73.2475 55.1825 74.4915C55.8637 74.9729 56.564 75.4267 57.2817 75.8518ZM58.125 59.625C59.5837 59.625 60.9826 59.0455 62.0141 58.0141C63.0455 56.9826 63.625 55.5837 63.625 54.125C63.625 52.6663 63.0455 51.2674 62.0141 50.2359C60.9826 49.2045 59.5837 48.625 58.125 48.625C56.6663 48.625 55.2674 49.2045 54.2359 50.2359C53.2045 51.2674 52.625 52.6663 52.625 54.125C52.625 55.5837 53.2045 56.9826 54.2359 58.0141C55.2674 59.0455 56.6663 59.625 58.125 59.625Z" fill="#FF6E40"/>
<path d="M66 54.375C66 58.5171 62.6421 61.875 58.5 61.875C54.3579 61.875 51 58.5171 51 54.375C51 50.2329 54.3579 46.875 58.5 46.875C62.6421 46.875 66 50.2329 66 54.375Z" fill="#FF6E40"/>
<circle cx="51" cy="54.875" r="2" fill="white"/>
<circle cx="58" cy="54.875" r="2" fill="white"/>
<circle cx="65" cy="54.875" r="2" fill="white"/>
<path fill-rule="evenodd" clip-rule="evenodd" d="M96.6167 69.6258L96.675 69.6592L96.6983 69.6725C96.7909 69.7225 96.8944 69.7487 96.9996 69.7487C97.1048 69.7487 97.2083 69.7225 97.3008 69.6725L97.3242 69.66L97.3833 69.6258C97.7093 69.4326 98.0273 69.2263 98.3367 69.0075C99.1376 68.4421 99.8859 67.8056 100.573 67.1058C102.193 65.4475 103.875 62.9558 103.875 59.75C103.875 57.9266 103.151 56.178 101.861 54.8886C100.572 53.5993 98.8234 52.875 97 52.875C95.1766 52.875 93.428 53.5993 92.1386 54.8886C90.8493 56.178 90.125 57.9266 90.125 59.75C90.125 62.955 91.8083 65.4475 93.4275 67.1058C94.1139 67.8056 94.8619 68.442 95.6625 69.0075C95.9721 69.2263 96.2905 69.4326 96.6167 69.6258ZM97 62.25C97.663 62.25 98.2989 61.9866 98.7678 61.5178C99.2366 61.0489 99.5 60.413 99.5 59.75C99.5 59.087 99.2366 58.4511 98.7678 57.9822C98.2989 57.5134 97.663 57.25 97 57.25C96.337 57.25 95.7011 57.5134 95.2322 57.9822C94.7634 58.4511 94.5 59.087 94.5 59.75C94.5 60.413 94.7634 61.0489 95.2322 61.5178C95.7011 61.9866 96.337 62.25 97 62.25Z" fill="#FF9573"/>
<path fill-rule="evenodd" clip-rule="evenodd" d="M24.6167 50.6258L24.675 50.6592L24.6983 50.6725C24.7909 50.7225 24.8944 50.7487 24.9996 50.7487C25.1048 50.7487 25.2083 50.7225 25.3008 50.6725L25.3242 50.66L25.3833 50.6258C25.7093 50.4326 26.0273 50.2263 26.3367 50.0075C27.1376 49.4421 27.8859 48.8056 28.5725 48.1058C30.1925 46.4475 31.875 43.9558 31.875 40.75C31.875 38.9266 31.1507 37.178 29.8614 35.8886C28.572 34.5993 26.8234 33.875 25 33.875C23.1766 33.875 21.428 34.5993 20.1386 35.8886C18.8493 37.178 18.125 38.9266 18.125 40.75C18.125 43.955 19.8083 46.4475 21.4275 48.1058C22.1139 48.8056 22.8619 49.442 23.6625 50.0075C23.9721 50.2263 24.2905 50.4326 24.6167 50.6258ZM25 43.25C25.663 43.25 26.2989 42.9866 26.7678 42.5178C27.2366 42.0489 27.5 41.413 27.5 40.75C27.5 40.087 27.2366 39.4511 26.7678 38.9822C26.2989 38.5134 25.663 38.25 25 38.25C24.337 38.25 23.7011 38.5134 23.2322 38.9822C22.7634 39.4511 22.5 40.087 22.5 40.75C22.5 41.413 22.7634 42.0489 23.2322 42.5178C23.7011 42.9866 24.337 43.25 25 43.25Z" fill="#FF9573"/>
<defs>
<linearGradient id="paint0_linear_771_2200" x1="103.297" y1="82.9944" x2="123.024" y2="72.2904" gradientUnits="userSpaceOnUse">
<stop offset="0.07" stop-color="#F5F5F5"/>
<stop offset="0.48" stop-color="#E5E5E5"/>
<stop offset="1" stop-color="white"/>
</linearGradient>
<linearGradient id="paint1_linear_771_2200" x1="108.669" y1="73.4417" x2="123.596" y2="81.8009" gradientUnits="userSpaceOnUse">
<stop stop-color="#F5F5F5"/>
<stop offset="0.411294" stop-color="#E5E5E5"/>
<stop offset="1" stop-color="white"/>
</linearGradient>
<linearGradient id="paint2_linear_771_2200" x1="110.461" y1="13.7329" x2="123" y2="5.97084" gradientUnits="userSpaceOnUse">
<stop stop-color="#F5F5F5"/>
<stop offset="1" stop-color="white"/>
</linearGradient>
<linearGradient id="paint3_linear_771_2200" x1="16.7183" y1="118.223" x2="4.77667" y2="124.791" gradientUnits="userSpaceOnUse">
<stop stop-color="#F5F5F5"/>
<stop offset="1" stop-color="white"/>
</linearGradient>
</defs>
</svg>
