<svg width="24" height="24" viewBox="0 0 24 24" fill="none" xmlns="http://www.w3.org/2000/svg">
<path fill-rule="evenodd" clip-rule="evenodd" d="M10.7999 4.2C9.04947 4.2 7.37074 4.89536 6.133 6.1331C4.89526 7.37084 4.1999 9.04958 4.1999 10.8C4.1999 12.5504 4.89526 14.2292 6.133 15.4669C7.37074 16.7046 9.04947 17.4 10.7999 17.4C12.5503 17.4 14.2291 16.7046 15.4668 15.4669C16.7045 14.2292 17.3999 12.5504 17.3999 10.8C17.3999 9.04958 16.7045 7.37084 15.4668 6.1331C14.2291 4.89536 12.5503 4.2 10.7999 4.2ZM2.3999 10.8C2.40002 9.45681 2.72224 8.13322 3.33954 6.94028C3.95684 5.74733 4.85122 4.71982 5.94765 3.94392C7.04408 3.16802 8.31059 2.66637 9.64094 2.48105C10.9713 2.29573 12.3267 2.43213 13.5934 2.87883C14.8602 3.32553 16.0013 4.06949 16.9212 5.0483C17.841 6.02712 18.5127 7.21225 18.8799 8.50427C19.2471 9.7963 19.2991 11.1575 19.0316 12.4738C18.7641 13.7901 18.1848 15.023 17.3423 16.0692L21.3359 20.064C21.4243 20.1464 21.4953 20.2458 21.5444 20.3562C21.5936 20.4666 21.6201 20.5857 21.6222 20.7066C21.6243 20.8274 21.6021 20.9475 21.5569 21.0595C21.5116 21.1716 21.4442 21.2734 21.3587 21.3589C21.2733 21.4443 21.1715 21.5117 21.0594 21.557C20.9474 21.6022 20.8273 21.6244 20.7065 21.6223C20.5856 21.6202 20.4665 21.5937 20.3561 21.5445C20.2457 21.4954 20.1463 21.4244 20.0639 21.336L16.0691 17.3424C14.835 18.3365 13.3448 18.9611 11.7707 19.1443C10.1966 19.3274 8.60285 19.0616 7.17344 18.3774C5.74403 17.6933 4.5373 16.6187 3.69263 15.2779C2.84796 13.9371 2.39979 12.3847 2.3999 10.8Z" fill="black"/>
</svg>
