<svg width="24" height="24" viewBox="0 0 24 24" fill="none" xmlns="http://www.w3.org/2000/svg">
<path fill-rule="evenodd" clip-rule="evenodd" d="M18.663 21.718C18.8416 21.7005 19.0194 21.6758 19.196 21.644C19.3257 21.6208 19.447 21.5638 19.5477 21.4787C19.6483 21.3937 19.7248 21.2836 19.7694 21.1597C19.814 21.0357 19.8252 20.9021 19.8018 20.7724C19.7783 20.6428 19.7212 20.5215 19.636 20.421C19.2257 19.9373 18.9456 19.3571 18.822 18.735C18.799 18.62 18.844 18.418 19.076 18.192C20.726 16.587 21.75 14.41 21.75 12C21.75 6.97 17.322 3 12 3C6.678 3 2.25 6.97 2.25 12C2.25 17.03 6.678 21 12 21C12.833 21 13.643 20.903 14.417 20.721C15.6822 21.5161 17.1762 21.8669 18.663 21.718Z" fill="black"/>
</svg>
