<svg width="48" height="48" viewBox="0 0 48 48" fill="none" xmlns="http://www.w3.org/2000/svg">
<path fill-rule="evenodd" clip-rule="evenodd" d="M23.08 44.702L23.22 44.782L23.276 44.814C23.4981 44.9341 23.7465 44.997 23.999 44.997C24.2515 44.997 24.4999 44.9341 24.722 44.814L24.778 44.784L24.92 44.702C25.7022 44.2382 26.4655 43.7431 27.208 43.218C29.1301 41.861 30.9261 40.3335 32.574 38.654C36.462 34.674 40.5 28.694 40.5 21C40.5 16.6239 38.7616 12.4271 35.6673 9.33274C32.5729 6.23839 28.3761 4.5 24 4.5C19.6239 4.5 15.4271 6.23839 12.3327 9.33274C9.23839 12.4271 7.5 16.6239 7.5 21C7.5 28.692 11.54 34.674 15.426 38.654C17.0733 40.3334 18.8685 41.8609 20.79 43.218C21.5331 43.7432 22.2971 44.2382 23.08 44.702ZM24 27C25.5913 27 27.1174 26.3679 28.2426 25.2426C29.3679 24.1174 30 22.5913 30 21C30 19.4087 29.3679 17.8826 28.2426 16.7574C27.1174 15.6321 25.5913 15 24 15C22.4087 15 20.8826 15.6321 19.7574 16.7574C18.6321 17.8826 18 19.4087 18 21C18 22.5913 18.6321 24.1174 19.7574 25.2426C20.8826 26.3679 22.4087 27 24 27Z" fill="#FF6E40"/>
</svg>
